<svg width="491" height="490" viewBox="0 0 491 490" fill="none" xmlns="http://www.w3.org/2000/svg">
<path d="M316.835 469.806C170.066 508.729 88.9786 476.015 66.7831 454.807C-32.4521 359.961 5.57664 257.735 21.6746 230.215C42.9137 193.887 82.8383 139.315 106.315 101.621C167.641 -3.52553 251.7 -6.95069 286.091 4.52064C437.344 35.0397 484.152 163.659 488.644 224.15C509.729 386.098 382.858 455.396 316.835 469.806Z" fill="#F7BC28"/>
<path d="M190.596 197.697C167.045 199.261 143.398 198.569 119.979 195.63C108.023 194.126 93.1376 189.087 93.8891 179.273C94.5553 170.62 107.024 166.46 117.408 164.419C198.619 148.754 281.679 145.013 363.968 153.315C377.794 154.707 392.662 156.894 402.253 165.102C406.267 168.519 409.153 173.456 407.377 177.966C405.31 183.253 398.025 185.739 391.518 187.438C348.856 198.477 304.918 203.802 260.855 203.275L190.596 197.697Z" fill="#153A23"/>
<path d="M203.125 143.962C225.209 139.478 247.661 134.993 270.113 136.915C292.565 138.837 315.375 148.199 328.586 166.478C343.156 186.695 343.634 213.866 354.898 236.091C361.799 249.758 373.012 262.57 372.252 277.783C371.15 299.991 346.298 312.18 324.914 318.278C271.868 333.4 216.84 340.415 161.697 339.086C155.77 338.94 149.647 338.65 144.301 336.079C134.847 331.569 129.809 320.559 129.501 310.113C129.194 299.666 132.721 289.442 136.427 279.628C152.516 237.04 172.529 196.04 196.207 157.159" fill="#FAC7B7"/>
<path d="M213.125 161.353C203.377 189.613 199.438 219.553 201.545 249.373C202.561 263.74 205.174 278.517 212.86 290.168C217.616 297.341 224.258 303.063 232.056 306.704C239.853 310.345 248.503 311.764 257.055 310.804C273.708 308.746 288.952 297.488 298.167 282.036C311.634 259.453 312.224 230.548 310.413 203.582C308.791 179.606 303.428 152.136 284.076 141.126C268.857 132.474 250.488 137.359 233.997 142.45L213.125 161.353Z" fill="#B26D55"/>
<path d="M189.734 220.05C212.63 220.144 238.831 209.689 244.595 204.18C261.974 187.584 263.639 161.472 263.119 138.649L208.778 149.907L190.127 184.927C190.127 184.927 189.725 220.05 189.734 220.05Z" fill="#FAC7B7"/>
<path d="M255.347 149.027C255.347 149.027 274.067 196.407 322.813 205.88L315.127 177.453L298.449 149.027H255.347Z" fill="#FAC7B7"/>
<path d="M89.9949 489.46C80.6692 459.428 93.112 415.276 115.162 392.863C137.213 370.45 167.419 357.843 197.838 349.899C235.013 340.179 274.699 336.668 311.737 346.722C327.237 350.924 342.054 357.433 356.145 365.197C378.307 377.42 399.486 393.752 410.212 416.677C422.416 442.789 419.299 457.677 414.892 486.146" fill="#39B55D"/>
<path d="M279.046 201.831C278.419 201.732 277.777 201.838 277.215 202.134C276.654 202.429 276.202 202.898 275.929 203.471C275.792 203.762 275.655 204.043 275.544 204.325C275.177 205.29 275.211 206.614 276.134 207.093C276.518 207.258 276.937 207.331 277.355 207.306C281.674 207.41 285.969 207.983 290.165 209.015C292.306 209.529 294.418 210.156 296.493 210.894C297.014 211.082 298.927 212.158 299.414 211.979C300.268 211.654 299.849 210.082 299.491 209.536C298.941 208.823 298.241 208.239 297.441 207.827L297.227 207.691C292.97 205.088 288.244 203.347 283.316 202.566L279.046 201.831Z" fill="#FAC7B7"/>
<path d="M226.166 150.018C209.291 151.188 204.73 165.726 198.752 179.35C192.074 194.554 180.289 210.842 172.184 225.32C164.25 239.482 156.377 253.755 150.364 268.882C147.352 276.346 144.931 284.034 143.122 291.876C141.56 298.829 141.867 300.503 140.928 307.67C139.869 315.827 140.219 325.376 148.392 326.888C156.564 328.4 171.194 328.007 179.213 329.083C180.716 329.288 181.373 326.982 179.853 326.777C168.23 325.222 148.972 330.194 144.361 315.28C142.243 308.447 143.643 300.896 145.095 294.063C146.649 286.709 162.414 258.658 165.07 251.628C175.95 222.86 184.089 218.128 197.206 190.428C204.039 175.907 206.908 153.768 226.166 152.427C227.686 152.324 227.703 149.932 226.166 150.035V150.018Z" fill="white"/>
<path d="M213.971 323.531C206.549 322.848 194.2 320.849 187.309 318.013C181.271 315.536 174.627 312.034 171.185 306.218C165.309 296.309 166.275 280.73 174.174 272.128C175.207 271.001 175.575 268.25 174.533 269.386C167.701 276.826 164.088 284.992 165.301 294.763C166.155 301.332 165.848 307.755 169.375 311.129C173.704 315.28 182.518 318.748 188.069 320.875C194.781 323.437 203.791 324.36 210.93 325.026C212.468 325.163 220.324 323.677 218.787 323.531H213.971Z" fill="white"/>
<path d="M189.35 255.438C185.823 265.03 181.869 280.857 184.098 288.69C185.396 293.251 194.072 300.136 201.007 305.91C202.185 306.892 204.756 307.618 203.569 306.61C196.967 301.118 189.674 295.036 187.343 286.392C184.781 276.629 187.539 263.809 190.912 254.626C191.442 253.183 189.845 254.003 189.315 255.438H189.35Z" fill="white"/>
<path d="M196.361 210.048C204.901 208.784 213.006 205.657 220.897 202.181C228.181 198.969 239.873 193.537 245.663 187.968C251.453 182.399 252.785 172.901 255.347 165.401C258.165 157.304 257.704 152.828 257.764 144.261C257.764 142.723 256.056 138.563 256.056 140.11C256.056 164.171 250.855 177.983 239.078 188.754C233.51 193.879 226.507 197.099 219.667 200.114C211.981 203.531 204.064 206.512 195.703 207.742C194.183 207.964 194.849 210.304 196.335 210.048H196.361Z" fill="white"/>
<path d="M212.348 184.141C214.389 176.582 223.766 168.946 229.189 163.197C235.073 156.954 236.363 154.844 243.528 150.154C244.817 149.3 243.622 147.25 242.324 148.096C234.637 153.11 227.225 158.893 221.059 165.692C215.576 171.739 212.092 178.162 211.622 182.091C211.434 183.62 210.64 187.618 211.622 187.968L212.348 184.141Z" fill="white"/>
<path d="M231.956 176.77C239.471 167.238 247.986 155.416 246.696 147.729C246.448 146.234 244.604 145.576 244.39 147.097C242.725 159.055 234.877 171.013 227.609 180.238C226.67 181.434 228.642 181.032 229.59 179.828L231.956 176.77Z" fill="white"/>
<path d="M328.219 206.179C301.19 198.978 279.541 176.018 273.922 148.634L272.769 150.146C289.943 148.566 305.033 159.414 314.863 172.636C326.17 187.84 330.79 206.708 336.947 224.312C340.204 233.326 344.023 242.127 348.382 250.663C352.61 259.145 356.922 268.447 355.812 278.184C353.933 294.456 337.63 303.715 323.702 308.695C302.292 316.382 279.054 319.722 256.38 319.927C254.843 319.927 251.256 323.548 252.819 323.531C274.511 323.335 293.342 320.781 314.043 314.221C328.236 309.711 352.473 298.487 358.109 283.616C361.431 274.844 361.782 267.131 358.331 258.701C354.429 249.168 345.453 240.14 341.747 230.514C334.59 211.876 327.229 183.484 322.105 177.462C310.148 163.437 292.214 145.978 272.794 147.763C272.612 147.768 272.433 147.813 272.271 147.897C272.109 147.98 271.967 148.098 271.857 148.243C271.746 148.388 271.669 148.556 271.632 148.734C271.595 148.913 271.598 149.098 271.641 149.275C279.814 188.515 299.824 201.088 327.613 208.493C327.917 208.571 328.239 208.526 328.51 208.368C328.781 208.211 328.979 207.953 329.062 207.651C329.145 207.348 329.105 207.026 328.953 206.752C328.8 206.478 328.546 206.275 328.245 206.187L328.219 206.179Z" fill="white"/>
<path d="M252.358 312.137C269.25 313.563 296.467 311.975 312.608 306.013C325.674 301.178 328.595 294.003 334.342 280.952C337.571 273.623 339.791 274.323 334.189 257.889C333.693 256.437 331.2 255.933 331.994 257.257C339.68 270.121 329.697 287.614 319.722 295.848C308.475 305.133 293.982 309.25 279.644 310.309C270.548 310.844 261.425 310.662 252.358 309.762C250.829 309.634 250.838 312.026 252.358 312.154V312.137Z" fill="white"/>
<path d="M343.805 285.752C350.731 276.723 348.169 270.573 345.675 259.76C342.754 247.093 335.205 236.083 328.27 225.32C327.416 224.03 325.367 225.226 326.204 226.525C332.78 236.732 339.868 247.024 343.011 258.983C345.82 269.6 346.546 278.304 340.491 289.254C339.748 290.595 339.347 292.91 340.269 291.705L343.805 285.752Z" fill="white"/>
<path d="M295.485 293.226C306.143 290.142 315.7 276.655 320.004 266.602C325.29 254.276 319.15 246.999 316.186 234.195C315.836 232.7 313.539 233.341 313.88 234.836C316.69 246.896 317.476 260.008 312.719 271.701C308.791 281.362 300.302 287.853 290.831 292.56C289.837 293.247 288.919 294.038 288.09 294.917L295.485 293.226Z" fill="white"/>
<path d="M290.933 168.638C296.057 170.167 299.935 173.985 303.564 177.744C307.322 181.647 315.904 191.923 319.073 196.313C325.256 204.855 325.179 208.092 328.894 217.966C329.432 219.392 331.746 218.769 331.2 217.325C327.251 206.747 321.841 196.773 315.127 187.695C311.848 183.287 312.053 181.365 308.21 177.445C304.512 173.686 299.61 169.757 294.452 168.194C292.974 167.75 289.499 168.194 290.968 168.63L290.933 168.638Z" fill="white"/>
<path d="M205.815 218.624C195.567 220.289 191.912 220.17 182.543 224.91C175.822 228.327 168.76 233.255 167.667 240.712C166.266 250.304 175.891 258.299 185.404 260.153C194.918 262.006 204.764 259.914 214.44 260.7" fill="#B26D55"/>
<path d="M307.697 203.317C316.367 202.447 325.12 203.59 333.275 206.657C341.405 209.724 348.305 217.949 346.828 226.516C345.239 235.724 335.461 240.866 326.648 243.958C318.381 246.865 309.927 249.208 301.344 250.971" fill="#B26D55"/>
<path d="M234.655 307.003L241.683 343.672H263.195L270.984 296.19L234.655 307.003Z" fill="#B26D55"/>
<path d="M207.335 358.569C206.566 349.579 207.82 340.531 211.007 332.09C211.276 331.173 211.79 330.346 212.493 329.698C213.517 329.076 214.717 328.806 215.909 328.93C240.052 328.93 262.29 326.931 286.433 326.888C289.576 326.888 294.708 328.801 297.646 329.92C302.77 331.859 306.186 336.925 307.535 342.212C308.885 347.499 308.586 353.068 308.244 358.526" fill="#39B55D"/>
<path d="M213.612 274.955C213.467 275.09 213.276 275.165 213.078 275.165C212.88 275.165 212.69 275.09 212.544 274.955C210.093 272.803 207.25 271.129 204.705 269.079C201.972 266.867 199.495 264.031 198.88 260.537C197.727 254.046 204.363 249.655 209.752 253.824C211.222 255.055 212.505 256.493 213.561 258.094C213.582 258.133 213.616 258.163 213.657 258.179C213.699 258.195 213.744 258.196 213.786 258.181C213.828 258.167 213.863 258.139 213.886 258.101C213.909 258.063 213.918 258.018 213.911 257.975C213.83 257.054 213.934 256.126 214.217 255.246C214.501 254.366 214.957 253.551 215.559 252.85C217.6 250.407 221.913 248.331 225.192 248.938C229.812 249.792 229.701 255.113 228.437 258.615C226.9 262.835 222.562 266.55 219.376 269.523L213.612 274.955Z" fill="#F1673C"/>
<path d="M298.158 271.018C297.998 271.135 297.799 271.188 297.601 271.166C297.404 271.144 297.221 271.048 297.091 270.898C294.913 268.472 292.274 266.491 289.985 264.159C287.526 261.648 285.391 258.539 285.177 255.036C284.776 248.459 291.873 244.855 296.749 249.613C298.068 251.003 299.176 252.581 300.037 254.293C300.058 254.33 300.09 254.36 300.129 254.377C300.168 254.394 300.211 254.398 300.253 254.388C300.294 254.379 300.331 254.356 300.358 254.323C300.386 254.291 300.402 254.25 300.404 254.208C300.433 253.286 300.645 252.38 301.028 251.541C301.411 250.702 301.956 249.948 302.633 249.322C304.939 247.127 309.465 245.564 312.651 246.546C317.143 247.921 316.417 253.191 314.76 256.523C312.753 260.546 308.013 263.74 304.512 266.328L298.158 271.018Z" fill="#F1673C"/>
<path d="M268.029 283.531C272.089 281.834 275.759 279.323 278.811 276.153C281.863 272.983 284.233 269.22 285.775 265.098C285.891 264.871 285.954 264.621 285.961 264.366C285.967 264.111 285.917 263.858 285.812 263.626C285.708 263.393 285.554 263.186 285.359 263.021C285.165 262.856 284.936 262.737 284.69 262.672C284.444 262.606 284.186 262.597 283.935 262.645C283.685 262.692 283.448 262.795 283.243 262.946C283.037 263.097 282.868 263.291 282.748 263.516C282.627 263.741 282.559 263.99 282.547 264.244C281.194 267.82 279.136 271.088 276.495 273.852C273.855 276.617 270.685 278.822 267.175 280.337C266.752 280.462 266.394 280.747 266.176 281.13C265.957 281.514 265.896 281.967 266.005 282.395C266.13 282.818 266.415 283.177 266.799 283.395C267.182 283.613 267.635 283.674 268.063 283.565L268.029 283.531Z" fill="#010101"/>
<path d="M269.37 223.526C270.813 229.668 276.629 234.861 283.179 233.366C289.26 231.983 291.898 225.517 293.649 220.221L291.215 221.22L303.112 227.293C305.024 228.267 306.724 225.38 304.82 224.406L292.923 218.333C292.7 218.21 292.453 218.139 292.199 218.124C291.945 218.109 291.691 218.15 291.455 218.246C291.219 218.342 291.008 218.489 290.837 218.677C290.665 218.865 290.538 219.089 290.464 219.333C289.174 223.228 287.423 228.387 283.162 229.907C278.132 231.701 273.717 227.216 272.641 222.638C272.145 220.545 268.917 221.434 269.413 223.492L269.37 223.526Z" fill="#010101"/>
<path d="M288.764 227.456L289.183 227.772C289.405 227.943 289.234 227.815 289.114 227.712L289.396 227.934L290.421 228.788L292.787 230.744C294.273 231.983 295.75 233.247 297.313 234.383C297.699 234.597 298.153 234.654 298.579 234.541C299.006 234.428 299.372 234.154 299.602 233.777C299.817 233.392 299.874 232.938 299.763 232.512C299.652 232.085 299.38 231.718 299.004 231.487L298.577 231.18C298.355 231.009 298.534 231.137 298.654 231.231L298.363 231.009L297.338 230.155C296.544 229.506 295.759 228.848 294.973 228.19C293.487 226.96 292.018 225.696 290.447 224.56C290.062 224.345 289.609 224.287 289.182 224.399C288.755 224.51 288.388 224.782 288.158 225.158C287.944 225.544 287.887 225.998 288 226.425C288.113 226.852 288.387 227.218 288.764 227.447V227.456Z" fill="#010101"/>
<path d="M240.069 227.832C238.993 232.41 234.578 236.886 229.548 235.092C225.278 233.58 223.57 228.412 222.237 224.518C222.163 224.275 222.036 224.052 221.865 223.865C221.694 223.678 221.484 223.532 221.249 223.436C221.014 223.34 220.761 223.298 220.508 223.312C220.255 223.326 220.009 223.397 219.786 223.518L207.882 229.591C205.96 230.574 207.651 233.461 209.59 232.478L221.486 226.414L219.035 225.406C220.794 230.719 223.424 237.159 229.505 238.56C236.055 240.063 241.871 234.844 243.314 228.72C243.809 226.627 240.581 225.73 240.086 227.866L240.069 227.832Z" fill="#010101"/>
<path d="M222.212 229.77C220.649 230.906 219.18 232.171 217.694 233.409L215.328 235.365L214.304 236.219L214.047 236.416C213.945 236.493 214.398 236.151 214.09 236.416L213.663 236.732C213.287 236.962 213.015 237.329 212.904 237.756C212.793 238.183 212.85 238.636 213.065 239.021C213.296 239.397 213.663 239.669 214.089 239.78C214.516 239.892 214.969 239.834 215.354 239.619C216.917 238.483 218.394 237.219 219.872 235.989L222.246 234.024L223.271 233.17L223.518 232.974L223.937 232.666C224.24 232.404 224.441 232.045 224.506 231.65C224.571 231.255 224.495 230.85 224.292 230.505C224.088 230.16 223.771 229.898 223.393 229.763C223.016 229.629 222.604 229.632 222.229 229.77H222.212Z" fill="#010101"/>
<path d="M318.834 215.344C321.94 215.028 325.078 215.318 328.074 216.198C331.02 216.941 334.052 217.906 335.76 220.588C336.225 221.249 336.527 222.011 336.641 222.811C336.755 223.611 336.679 224.427 336.418 225.192C335.822 226.707 334.927 228.087 333.787 229.249C331.821 231.173 329.477 232.667 326.904 233.64C323.915 234.887 320.806 235.843 317.835 237.159C316.434 237.774 317.647 239.841 319.039 239.217C324.897 236.655 331.849 235.374 336.119 230.189C338.501 227.302 340.004 223.783 338.254 220.187C336.64 216.89 333.488 215.267 330.124 214.276C326.273 213.01 322.196 212.588 318.168 213.037C316.647 213.26 317.314 215.6 318.8 215.344H318.834Z" fill="#010101"/>
<path d="M320.96 229.096C321.893 228.867 322.794 228.522 323.642 228.071C324.803 227.53 325.898 226.856 326.904 226.063C327.392 225.736 327.806 225.31 328.119 224.812C328.432 224.315 328.638 223.758 328.723 223.176C328.8 221.596 327.365 220.674 326.084 220.153C324.21 219.509 322.249 219.154 320.268 219.102C319.953 219.104 319.651 219.231 319.428 219.455C319.206 219.679 319.081 219.982 319.081 220.298C319.092 220.606 319.218 220.898 319.435 221.117C319.652 221.335 319.944 221.464 320.251 221.477L321.268 221.562L321.848 221.622H322.07H322.352H322.523L322.865 221.673L323.428 221.776C323.832 221.851 324.231 221.948 324.624 222.066L325.136 222.237L325.333 222.314C325.085 222.22 325.392 222.314 325.427 222.314C325.461 222.314 325.725 222.467 325.862 222.544L326.067 222.681C326.349 222.843 325.965 222.57 326.067 222.681L326.281 222.886C326.443 223.031 326.135 222.638 326.229 222.818L326.289 222.912C326.443 223.142 326.204 222.638 326.289 222.912C326.375 223.185 326.289 222.647 326.289 222.912C326.285 222.96 326.285 223.008 326.289 223.057C326.289 223.057 326.375 222.741 326.289 222.877C326.255 222.95 326.232 223.028 326.221 223.108C326.178 223.305 326.366 222.843 326.221 223.014C326.221 223.014 326.178 223.091 326.161 223.134C326.144 223.176 326.05 223.304 325.99 223.398C325.93 223.492 326.187 223.168 326.033 223.339L325.93 223.458C325.862 223.544 325.785 223.621 325.717 223.697C325.649 223.774 325.316 224.048 325.119 224.227C325.059 224.27 324.957 224.372 325.187 224.176L325.008 224.304C324.906 224.381 324.803 224.458 324.692 224.526C324.581 224.594 324.214 224.842 323.975 224.987C323.505 225.269 323.027 225.525 322.54 225.764L321.754 226.132L321.626 226.183C321.985 226.072 321.695 226.183 321.626 226.183L321.285 226.311C320.944 226.449 320.593 226.557 320.234 226.636C320.081 226.675 319.938 226.745 319.812 226.841C319.686 226.936 319.58 227.056 319.501 227.192C319.422 227.329 319.37 227.48 319.349 227.636C319.329 227.793 319.339 227.952 319.38 228.105C319.466 228.41 319.668 228.67 319.942 228.829C320.216 228.989 320.541 229.035 320.849 228.959L320.96 229.096Z" fill="#010101"/>
<path d="M196.071 251.321C191.909 251.847 187.683 251.487 183.671 250.262C180.793 249.407 175.182 247.648 175.985 243.676C176.343 241.823 177.693 240.259 178.974 238.953C180.277 237.631 181.707 236.441 183.244 235.399C186.404 233.254 189.947 231.735 193.679 230.924C195.183 230.59 194.533 228.284 193.048 228.617C186.54 230.052 179.981 233.623 175.814 238.918C173.815 241.481 172.526 244.974 174.661 247.853C176.625 250.492 180.434 251.791 183.466 252.679C187.567 253.882 191.871 254.234 196.113 253.712C197.616 253.524 197.634 251.15 196.113 251.321H196.071Z" fill="#010101"/>
<path d="M191.109 235.997C189.497 236.174 187.926 236.622 186.463 237.321C185.058 237.952 183.808 238.882 182.799 240.046C182.293 240.658 181.977 241.404 181.889 242.193C181.801 242.982 181.945 243.78 182.304 244.488C182.642 245.148 183.11 245.733 183.679 246.208C184.249 246.684 184.908 247.04 185.618 247.255C187.471 247.836 189.444 247.545 191.322 247.255C191.63 247.173 191.893 246.972 192.053 246.697C192.213 246.422 192.257 246.094 192.176 245.786C192.088 245.482 191.887 245.223 191.613 245.064C191.34 244.905 191.015 244.858 190.708 244.932C189.162 245.162 187.454 245.427 185.968 244.821C186.104 244.872 185.72 244.693 185.677 244.667C185.53 244.581 185.387 244.487 185.25 244.385C185.327 244.436 185.302 244.385 185.191 244.325L185.003 244.146C185.003 244.146 184.695 243.813 184.772 243.907C184.673 243.77 184.582 243.627 184.499 243.48C184.457 243.408 184.42 243.334 184.388 243.258C184.388 243.352 184.388 243.335 184.388 243.198C184.332 243.045 184.289 242.888 184.26 242.728C184.26 242.942 184.26 242.489 184.26 242.446C184.26 242.403 184.26 242.284 184.26 242.403C184.26 242.318 184.26 242.241 184.311 242.156C184.35 242.035 184.405 241.921 184.473 241.814C184.641 241.538 184.852 241.29 185.097 241.08C185.646 240.58 186.251 240.144 186.899 239.781C188.214 239.03 189.665 238.548 191.169 238.363C191.483 238.355 191.782 238.226 192.005 238.004C192.227 237.781 192.356 237.482 192.364 237.167C192.362 236.851 192.235 236.548 192.012 236.324C191.788 236.101 191.485 235.974 191.169 235.972L191.109 235.997Z" fill="#010101"/>
<path d="M257.098 240.012C259.182 245.367 261.564 250.723 263.255 256.078C263.347 256.384 263.366 256.707 263.311 257.022C263.256 257.337 263.128 257.634 262.939 257.891C262.749 258.148 262.502 258.357 262.218 258.502C261.933 258.647 261.619 258.724 261.299 258.726L253.613 258.786C253.325 258.784 253.04 258.722 252.778 258.603C252.515 258.484 252.281 258.31 252.09 258.094C251.899 257.878 251.755 257.624 251.669 257.349C251.583 257.074 251.556 256.783 251.589 256.497L253.127 240.507C253.178 240.048 253.383 239.619 253.708 239.291C254.033 238.962 254.459 238.752 254.917 238.695C255.376 238.638 255.84 238.737 256.236 238.975C256.631 239.214 256.935 239.579 257.098 240.012V240.012Z" fill="#C05929"/>
<path d="M188.402 156.877L316.408 152.264L294.264 95.3689H210.965L188.402 156.877Z" fill="#153A23"/>
<path d="M213.783 330.057C241.34 327.177 269.094 326.651 296.741 328.485C298.269 328.588 298.269 326.196 296.741 326.094C269.094 324.259 241.34 324.785 213.783 327.665C212.263 327.819 212.254 330.228 213.783 330.057V330.057Z" fill="#153A23"/>
<path d="M93.3084 485.633C87.9624 482.268 85.2381 475.161 87.45 469.182C89.6618 463.203 96.6476 459.385 102.984 460.555V458.257C93.3853 461.461 86.0836 450.203 86.1775 441.832C86.2287 436.921 87.9367 431.727 91.6773 428.379C95.4178 425.031 100.824 423.801 105.427 425.817C106.819 426.44 107.989 424.373 106.631 423.749C104.133 422.672 101.394 422.276 98.6933 422.603C95.9927 422.93 93.4272 423.968 91.2588 425.612C86.4252 429.182 84.0339 435.187 83.7863 441.063C83.3507 451.142 92.147 464.356 103.591 460.529C104.615 460.188 104.837 458.454 103.591 458.232C96.1693 456.857 88.2186 460.794 85.3576 467.909C82.4967 475.025 85.6138 483.677 92.0787 487.709C93.3853 488.563 94.5894 486.462 93.2828 485.65L93.3084 485.633Z" fill="#153A23"/>
<path d="M145.377 386.764C143.141 386.423 141.05 385.448 139.351 383.956C137.651 382.463 136.414 380.516 135.787 378.342C134.343 373.585 136.333 368.733 140.227 365.795C148.895 359.269 160.296 365.701 161.825 375.754L162.679 374.285C159.212 374.917 156.308 371.492 156.129 368.246C155.95 365.001 158.631 362.566 161.518 361.669C168.913 359.397 174.481 366.119 176.113 372.611C176.488 374.097 178.794 373.465 178.418 371.97C177.24 367.29 174.575 362.746 170.237 360.362C168.376 359.34 166.279 358.823 164.156 358.864C162.032 358.904 159.957 359.5 158.136 360.593C154.72 362.737 152.867 366.726 154.199 370.672C155.531 374.618 159.161 377.352 163.311 376.591C163.617 376.507 163.879 376.306 164.038 376.031C164.198 375.757 164.244 375.43 164.165 375.122C163.719 372.264 162.567 369.563 160.813 367.263C159.059 364.963 156.76 363.137 154.122 361.951C151.542 360.833 148.703 360.45 145.92 360.845C143.136 361.24 140.516 362.397 138.349 364.189C136.169 365.841 134.528 368.102 133.634 370.687C132.74 373.272 132.633 376.064 133.327 378.71C134.787 383.971 139.22 388.336 144.711 389.079C146.214 389.276 146.863 386.978 145.343 386.773L145.377 386.764Z" fill="#153A23"/>
<path d="M327.083 358.774C338.237 354.435 351.713 364.36 350.816 376.318L352.012 375.122C348.852 374.823 346.632 372.107 345.957 369.143C345.214 365.855 346.64 362.694 349.014 360.439C354.949 354.802 363.788 355.87 371.218 356.895C372.721 357.1 373.37 354.802 371.85 354.588C362.823 353.341 351.474 352.359 345.504 360.901C341.234 366.948 344.035 376.771 352.037 377.523C352.353 377.518 352.655 377.391 352.878 377.167C353.101 376.944 353.229 376.643 353.233 376.327C354.232 362.917 339.014 351.599 326.469 356.476C325.051 357.031 325.666 359.338 327.109 358.782L327.083 358.774Z" fill="#153A23"/>
<path d="M376.009 381.887C379.203 380.136 382.986 382.468 384.549 385.364C386.744 389.37 385.48 394.469 384.455 398.629C384.402 398.832 384.403 399.046 384.459 399.248C384.514 399.451 384.621 399.636 384.769 399.784C384.918 399.933 385.102 400.04 385.305 400.095C385.508 400.15 385.721 400.151 385.924 400.098C394.336 397.536 403.295 406.931 400.442 415.182C399.938 416.643 402.244 417.275 402.74 415.823C406.156 405.821 395.344 394.725 385.267 397.792L386.736 399.261C388.017 394.059 389.298 387.696 385.882 383.032C383.32 379.615 378.734 377.685 374.779 379.846C373.43 380.581 374.634 382.648 375.984 381.904L376.009 381.887Z" fill="#153A23"/>
<path d="M420.426 430.096C424.781 429.6 428.172 433.513 428.377 437.638C428.59 441.977 426.105 446.052 423.381 449.212C418.335 455.019 411.557 459.049 404.046 460.709C402.748 460.999 403.013 463.143 404.362 463.049C409.802 462.691 414.559 467.166 413.611 472.735C413.424 473.869 413.021 474.957 412.424 475.938C411.877 476.793 410.716 477.485 410.28 478.356C409.845 479.227 410.349 480.764 410.468 481.67L411.049 486.18C411.245 487.683 413.611 487.7 413.44 486.18L413.03 483.019C412.919 482.165 412.424 480.688 412.62 479.859C412.868 478.851 413.901 478.082 414.482 477.143C415.873 474.856 416.405 472.15 415.985 469.507C415.046 464.057 409.802 460.299 404.362 460.641L404.687 462.981C414.038 460.871 423.031 455.14 428.052 446.829C430.392 442.96 431.759 438.074 429.888 433.743C428.283 430.01 424.593 427.2 420.426 427.679C418.914 427.858 418.897 430.241 420.426 430.07V430.096Z" fill="#153A23"/>
<path d="M401.928 417.591C406.027 416.036 411.553 415.029 415.285 418.069C417.847 420.145 419.435 424.595 416.993 427.38C415.985 428.533 417.668 430.233 418.701 429.088C421.152 426.269 421.007 422.255 419.213 419.129C417.095 415.413 412.97 413.747 408.82 413.782C406.238 413.839 403.688 414.357 401.288 415.31C399.862 415.857 400.476 418.163 401.92 417.617L401.928 417.591Z" fill="#153A23"/>
<path d="M210.666 355.11C208.792 346.854 210.071 338.195 214.252 330.834C214.397 330.562 214.431 330.245 214.347 329.949C214.263 329.652 214.069 329.4 213.803 329.243C213.538 329.087 213.223 329.039 212.923 329.11C212.623 329.18 212.362 329.363 212.194 329.621C207.705 337.546 206.343 346.864 208.377 355.742C208.727 357.245 211.033 356.596 210.683 355.11H210.666Z" fill="#153A23"/>
<path d="M222.741 351.624C221.954 349.113 221.782 346.449 222.242 343.858C222.701 341.267 223.778 338.824 225.38 336.736C225.536 336.46 225.578 336.134 225.497 335.828C225.415 335.521 225.217 335.259 224.945 335.097C224.668 334.947 224.346 334.909 224.042 334.99C223.739 335.071 223.478 335.265 223.313 335.532C221.544 337.893 220.36 340.64 219.86 343.548C219.359 346.455 219.557 349.44 220.435 352.257C220.905 353.717 223.211 353.111 222.741 351.624V351.624Z" fill="#153A23"/>
<path d="M238.412 355.477C239.13 351.206 238.318 346.594 237.729 342.374C237.14 338.154 236.602 333.491 234.953 329.493C234.373 328.084 232.058 328.699 232.648 330.125C234.219 333.935 234.749 338.325 235.329 342.374C235.688 344.808 235.97 347.251 236.123 349.711C236.319 351.414 236.319 353.133 236.123 354.836C235.876 356.339 238.173 356.989 238.429 355.468L238.412 355.477Z" fill="#153A23"/>
<path d="M246.713 334.704C247.174 340.102 246.953 345.538 246.056 350.881C245.799 352.385 248.105 353.034 248.361 351.513C249.313 345.963 249.562 340.316 249.104 334.704C248.976 333.183 246.585 333.175 246.713 334.704Z" fill="#153A23"/>
<path d="M261.12 351.377C262.401 347.361 262.865 343.13 262.487 338.932C262.351 334.742 261.321 330.629 259.463 326.871C258.737 325.513 256.671 326.717 257.405 328.075C259.224 331.492 259.899 335.472 260.121 339.282C260.442 343.152 259.998 347.047 258.814 350.745C258.302 352.197 260.608 352.82 261.12 351.377V351.377Z" fill="#153A23"/>
<path d="M267.816 332.765C271.187 338.46 272.351 345.196 271.086 351.693C270.787 353.196 273.093 353.837 273.392 352.325C274.801 345.205 273.546 337.815 269.865 331.56C269.705 331.286 269.443 331.087 269.137 331.006C268.83 330.925 268.504 330.969 268.23 331.129C267.956 331.289 267.756 331.551 267.675 331.857C267.594 332.164 267.639 332.491 267.798 332.765H267.816Z" fill="#153A23"/>
<path d="M296.963 331.569C300.636 337.403 302.223 344.311 301.463 351.163C301.301 352.692 303.692 352.684 303.854 351.163C304.633 343.887 302.939 336.56 299.046 330.364C298.192 329.066 296.16 330.262 296.98 331.569H296.963Z" fill="#153A23"/>
<path d="M288.363 351.368C287.088 348.682 286.456 345.736 286.517 342.764C286.578 339.791 287.329 336.874 288.713 334.242C289.439 332.884 287.381 331.68 286.655 333.038C285.07 336.039 284.213 339.37 284.152 342.763C284.091 346.157 284.828 349.517 286.305 352.573C286.971 353.956 289.029 352.743 288.363 351.368V351.368Z" fill="#153A23"/>
<path d="M225.807 361.14C241.099 360.183 256.383 359.147 271.659 358.031C279.225 357.461 286.786 356.892 294.341 356.322C298.116 356.032 301.893 355.747 305.674 355.468C308.577 355.229 311.421 354.956 313.932 353.367C315.221 352.513 314.026 350.471 312.719 351.3C309.696 353.222 305.827 353.068 302.369 353.341L291.975 354.196C284.574 354.765 277.173 355.32 269.771 355.861C255.128 356.92 240.473 357.911 225.807 358.834C224.287 358.928 224.27 361.319 225.807 361.217V361.14Z" fill="#153A23"/>
<path d="M107.92 423.732C104.607 421.905 101.37 418.607 101.532 414.533C101.669 411.04 105.521 407.367 109.082 408.99C110.047 409.425 111.49 408.434 110.722 407.35C109.543 405.71 108.365 403.378 109.355 401.371C110.132 399.807 112.378 399.039 113.625 400.516C114.436 401.456 115.897 400.448 115.624 399.355C114.872 396.399 113.813 390.574 118.391 390.258C122.797 389.959 125 394.597 126.572 397.945C127.101 399.073 128.775 398.441 128.801 397.339L129.031 388.797C129.031 387.747 128.673 385.381 129.945 384.902C131.388 384.398 132.772 386.337 133.515 387.251C134.488 388.447 136.171 386.747 135.223 385.543C133.472 383.399 129.766 380.726 127.434 383.835C126.367 385.244 126.7 387.542 126.649 389.182L126.427 397.365L128.656 396.767C126.546 392.291 122.977 386.577 117.092 388.08C111.678 389.455 112.267 395.836 113.335 400.038L115.333 398.876C113.437 396.681 110.013 397.117 108.1 399.09C105.538 401.781 106.75 405.974 108.663 408.639L110.295 407.008C105.794 404.958 100.687 408.084 99.4231 412.688C97.9115 418.206 102.199 423.382 106.725 425.876C108.074 426.619 109.287 424.561 107.929 423.818L107.92 423.732Z" fill="#153A23"/>
<path d="M178.547 361.106C179.408 358.559 181.012 356.327 183.151 354.698C185.29 353.069 187.867 352.117 190.551 351.964C193.235 351.81 195.903 352.463 198.214 353.838C200.525 355.213 202.371 357.247 203.518 359.679C204.209 361.054 206.267 359.85 205.584 358.475C204.199 355.637 201.999 353.278 199.266 351.697C196.532 350.116 193.39 349.387 190.24 349.601C187.09 349.816 184.076 350.965 181.582 352.902C179.089 354.838 177.229 357.474 176.241 360.474C175.728 361.926 178.043 362.549 178.547 361.106V361.106Z" fill="#153A23"/>
<path d="M226.089 466.039C224.381 463.476 222.852 460.111 224.424 457.104C226.08 453.935 229.394 454.499 231.853 456.318C235.637 459.129 241.914 465.953 238.685 470.925L240.564 470.685C238.728 469.122 238.856 466.415 240.146 464.535C241.615 462.357 244.373 461.495 246.824 461.025C250.872 460.239 257.243 459.513 259.72 463.698C259.879 463.972 260.141 464.172 260.448 464.253C260.755 464.334 261.081 464.289 261.355 464.13C261.629 463.97 261.828 463.708 261.909 463.401C261.99 463.094 261.946 462.768 261.786 462.494C258.439 456.831 249.899 457.574 244.467 459.12C241.435 459.974 238.566 461.683 237.37 464.749C236.328 467.363 236.653 470.489 238.873 472.377C239.005 472.502 239.162 472.596 239.335 472.652C239.507 472.709 239.69 472.727 239.87 472.704C240.05 472.681 240.222 472.618 240.375 472.52C240.527 472.422 240.656 472.291 240.752 472.137C242.913 468.721 241.803 464.894 239.813 461.708C237.729 458.36 234.629 454.687 230.965 453.047C229.437 452.303 227.679 452.185 226.065 452.717C224.45 453.25 223.108 454.392 222.323 455.9C220.299 459.684 221.819 463.903 223.988 467.243C224.842 468.533 226.892 467.337 226.055 466.039H226.089Z" fill="#153A23"/>
<path d="M283.128 395.511C284.162 395.044 285.281 394.797 286.415 394.784C287.549 394.772 288.674 394.996 289.717 395.44C290.761 395.885 291.7 396.542 292.477 397.368C293.254 398.195 293.851 399.174 294.23 400.243C294.597 401.289 294.743 402.4 294.657 403.506C294.597 404.309 294.247 406.154 293.231 406.299C291.933 406.478 292.428 404.727 292.966 404.215C293.841 403.528 294.92 403.152 296.032 403.147C300.302 402.848 304.179 405.872 306.083 409.477C308.492 414.012 308.261 419.513 307.535 424.441C307.313 425.945 309.61 426.594 309.833 425.082C310.687 419.479 310.891 413.423 308.125 408.264C305.921 404.112 301.472 400.756 296.647 400.73C294.495 400.73 291.856 401.362 290.609 403.292C289.567 404.881 289.755 407.35 291.548 408.358C293.581 409.528 295.639 407.871 296.459 406.043C297.318 403.756 297.248 401.223 296.262 398.987C295.739 397.705 294.967 396.538 293.992 395.553C293.016 394.569 291.857 393.787 290.579 393.251C289.301 392.716 287.93 392.437 286.545 392.432C285.159 392.427 283.786 392.696 282.504 393.222C281.095 393.803 281.71 396.118 283.136 395.528L283.128 395.511Z" fill="#153A23"/>
<path d="M193.406 394.982C199.273 396.331 205.567 391.334 205.422 385.27C205.422 383.732 202.997 383.724 203.031 385.27C203.142 389.746 198.376 393.675 194.047 392.675C192.544 392.325 191.912 394.631 193.406 394.982V394.982Z" fill="#153A23"/>
<path d="M125.658 439.577C122.908 437.425 118.211 438.8 117.537 442.421C116.802 446.359 121.473 449.349 124.864 447.546L123.105 446.837C123.489 447.888 122.011 448.913 121.397 449.622C120.88 450.138 120.478 450.756 120.216 451.438C119.954 452.119 119.838 452.848 119.876 453.577C120.175 456.686 123.181 458.975 125.684 460.41C125.955 460.542 126.266 460.568 126.554 460.48C126.843 460.393 127.088 460.2 127.241 459.939C127.393 459.679 127.441 459.371 127.376 459.076C127.31 458.782 127.136 458.523 126.888 458.351C125.129 457.344 121.491 455.003 122.353 452.475C122.737 451.339 123.882 450.527 124.608 449.613C125.032 449.166 125.329 448.614 125.47 448.014C125.611 447.413 125.591 446.786 125.41 446.197C125.357 446.023 125.265 445.863 125.142 445.73C125.019 445.596 124.868 445.491 124.7 445.423C124.531 445.355 124.349 445.326 124.168 445.337C123.987 445.348 123.81 445.4 123.651 445.488C122.02 446.342 119.501 444.719 119.876 442.823C120.201 441.226 122.652 440.201 123.967 441.234C125.282 442.268 126.871 440.491 125.675 439.526L125.658 439.577Z" fill="#153A23"/>
<path d="M337.972 438.432C337.485 442.951 337.323 447.828 339.005 452.159C340.688 456.489 343.916 458.3 348.322 459.359C349.646 459.684 352.046 460.376 352.131 462.135C352.217 463.895 349.928 464.049 348.869 464.698C348.058 465.211 347.365 465.889 346.834 466.688C346.302 467.488 345.946 468.39 345.786 469.336C344.608 474.956 349.441 480.876 346.888 486.154C346.222 487.529 348.288 488.717 348.954 487.359C351.687 481.696 347.46 476.579 347.972 470.848C347.985 470.098 348.155 469.36 348.473 468.681C348.791 468.003 349.249 467.399 349.817 466.91C350.671 466.261 351.858 466.124 352.78 465.543C353.553 465.066 354.124 464.321 354.386 463.451C354.647 462.58 354.58 461.644 354.198 460.82C353.344 458.719 351.397 457.719 349.322 457.173C346.452 456.412 343.933 455.926 342.208 453.278C339.466 449.067 339.842 443.224 340.363 438.458C340.525 436.938 338.134 436.946 337.972 438.458V438.432Z" fill="#153A23"/>
<path d="M173.457 436.827C175.017 439.507 175.684 442.615 175.362 445.7C175.04 448.785 173.744 451.687 171.663 453.987C171.537 454.117 171.441 454.273 171.384 454.445C171.326 454.617 171.308 454.8 171.331 454.98C171.354 455.16 171.418 455.332 171.517 455.484C171.615 455.636 171.747 455.763 171.902 455.857C177.547 458.249 178.299 465.253 177.932 470.626C177.505 476.895 176.283 483.532 179.921 489.127C180.775 490.417 182.825 489.221 181.988 487.922C177.846 481.542 180.767 473.863 180.357 466.842C180.058 461.657 178.265 455.977 173.107 453.799L173.354 455.669C175.797 452.99 177.325 449.602 177.715 445.996C178.104 442.39 177.337 438.754 175.523 435.614C175.363 435.34 175.099 435.141 174.792 435.061C174.484 434.981 174.158 435.026 173.884 435.187C173.61 435.348 173.411 435.611 173.331 435.918C173.25 436.226 173.296 436.553 173.457 436.827V436.827Z" fill="#153A23"/>
</svg>
