<svg width="66" height="146" viewBox="0 0 66 146" fill="none" xmlns="http://www.w3.org/2000/svg">
<path d="M56.7665 145.125H9.23355C4.13276 145.125 0 137.589 0 128.287V25.7666C0 16.4651 4.13276 8.92883 9.23355 8.92883H56.7665C61.8672 8.92883 66 16.4651 66 25.7666V128.287C66 137.589 61.8672 145.125 56.7665 145.125Z" fill="#F7BC28"/>
<path d="M55.5254 53.3545H10.4746C8.32754 53.3545 6.57764 50.1634 6.57764 46.2482V26.4682C6.57764 22.553 8.32754 19.3619 10.4746 19.3619H55.5254C57.6724 19.3619 59.4223 22.553 59.4223 26.4682V46.2482C59.4223 50.1634 57.6724 53.3545 55.5254 53.3545Z" fill="#E48929"/>
<path d="M55.3272 92.7293H10.2765C8.46446 92.7293 7 90.0587 7 86.7545V66.9747C7 63.6705 8.46446 61 10.2765 61H55.3272C57.1392 61 58.6037 63.6705 58.6037 66.9747V86.7545C58.6037 90.0587 57.1392 92.7293 55.3272 92.7293Z" fill="#E48929"/>
<path d="M55.5254 134.058H10.4746C8.32754 134.058 6.57764 130.867 6.57764 126.952V107.172C6.57764 103.257 8.32754 100.066 10.4746 100.066H55.5254C57.6724 100.066 59.4223 103.257 59.4223 107.172V126.952C59.4223 130.867 57.6724 134.058 55.5254 134.058Z" fill="#E48929"/>
<path d="M33.3476 82.7301C35.1709 82.7301 36.6489 80.0349 36.6489 76.7102C36.6489 73.3854 35.1709 70.6902 33.3476 70.6902C31.5244 70.6902 30.0464 73.3854 30.0464 76.7102C30.0464 80.0349 31.5244 82.7301 33.3476 82.7301Z" fill="#F7BC28"/>
<path d="M33.3476 123.082C35.1709 123.082 36.6489 120.387 36.6489 117.062C36.6489 113.737 35.1709 111.042 33.3476 111.042C31.5244 111.042 30.0464 113.737 30.0464 117.062C30.0464 120.387 31.5244 123.082 33.3476 123.082Z" fill="#F7BC28"/>
<path d="M10.2635 10.7618C11.9017 27.2828 12.9442 44.4375 14.6817 60.8454H47.4335C44.7528 32.1033 43.3628 21.7381 41.8238 3.29341C41.6501 1.30183 40.6448 -0.101322 39.5527 0.147625L12.0134 6.39392C10.8468 6.66549 10.0525 8.65706 10.2635 10.7618Z" fill="#FBFAF7"/>
<path d="M18.5415 24.816C24.7344 25.2008 30.915 24.7029 37.0707 23.3223C38.0511 23.0959 38.0635 20.267 37.0707 20.4934C30.9274 21.8739 24.7344 22.3718 18.5415 21.987C17.5487 21.9417 17.5487 24.7707 18.5415 24.816Z" fill="#194429"/>
<path d="M19.7827 36.1318C25.9757 36.5164 32.1562 36.0185 38.3119 34.6381C39.2923 34.4117 39.3047 31.5828 38.3119 31.8091C32.1686 33.1895 25.9757 33.6874 19.7827 33.3028C18.7899 33.2575 18.7899 36.0865 19.7827 36.1318Z" fill="#194429"/>
<path d="M21.0234 47.4476C27.2164 47.8323 33.3969 47.3345 39.5526 45.9539C40.533 45.7277 40.5455 42.8987 39.5526 43.1249C33.4093 44.5055 27.2164 45.0034 21.0234 44.6186C20.0306 44.5735 20.0306 47.4024 21.0234 47.4476Z" fill="#194429"/>
</svg>
