<svg width="79" height="161" viewBox="0 0 79 161" fill="none" xmlns="http://www.w3.org/2000/svg">
<g clip-path="url(#clip0_20_32)">
<path d="M5.86874 31.0338C2.48883 34.2599 0.335389 40.1627 0.178515 46.6747C-0.35628 68.6966 -0.862553 115.237 17.5558 138.86L33.343 156.461C36.9439 160.476 41.6002 160.679 45.3367 157.011C50.2211 152.219 56.7599 145.002 60.5391 137.51C60.7103 137.163 60.8885 136.841 61.0739 136.518C63.4698 132.444 81.5102 99.8473 78.7079 46.1012C78.387 39.9477 76.2978 34.4271 73.1032 31.3324L45.1513 4.29219C41.6715 0.922615 37.386 0.898715 33.8992 4.24439L5.86874 31.0338Z" fill="#F7BC28"/>
<path d="M14.5535 43.3518C12.0507 45.7415 10.4534 50.1267 10.3322 54.9541C9.93288 71.2881 9.56209 105.797 23.2172 123.326L34.9257 136.386C37.5996 139.361 41.0508 139.516 43.8175 136.792C47.4399 133.243 52.2887 127.89 55.091 122.334C55.2194 122.083 55.3477 121.832 55.4903 121.605C57.2658 118.582 70.593 94.1703 68.5679 54.5479C68.4395 51.9788 64.6318 44.2958 63.334 42.5511L43.6892 23.5167C41.1079 21.0193 37.9348 21.0074 35.3464 23.4808L14.5535 43.3518Z" fill="#E48929"/>
<path d="M39.4966 21.6287V80.6919H67.7409C67.7409 80.6919 69.7518 64.2144 68.5752 54.5477C68.5752 54.5477 68.2472 47.9042 63.3413 42.5511L43.6894 23.5167C43.6894 23.5167 41.6928 21.5092 39.4966 21.6287Z" fill="#FBFAF7"/>
<path d="M39.4965 80.6919L39.4894 138.716C39.4894 138.716 37.2219 138.931 34.3767 135.752L24.9643 125.261C24.9643 125.261 16.9852 117.291 14.3897 104.1C14.3897 104.1 11.1167 91.9718 10.6675 79.6046L39.4965 80.6919Z" fill="#FBFAF7"/>
</g>
<defs>
<clipPath id="clip0_20_32">
<rect width="79" height="160" fill="white" transform="translate(0 0.125)"/>
</clipPath>
</defs>
</svg>
