<svg width="117" height="145" viewBox="0 0 117 145" fill="none" xmlns="http://www.w3.org/2000/svg">
<path d="M109.938 3.58023C117.85 8.29247 116.366 21.6922 116.769 38.9878C117 48.6493 117.043 52.8614 116.957 61.733C116.884 68.4723 117.49 80.3186 115.443 85.9786C113.353 91.7438 107.675 93.1391 104.086 94.4816C99.5608 96.1665 94.9776 97.3247 90.3656 97.7724C87.6417 98.0356 84.9178 98.2988 82.2082 98.72C80.6084 98.9833 77.9854 98.6937 76.5585 100.326C74.8291 102.327 73.6328 111.461 71.6151 116.49C69.8135 120.965 67.4643 125.177 64.726 127.652C63.9621 128.336 63.1262 128.915 62.2758 128.678C59.6095 127.994 59.8113 119.728 59.7969 116.147C59.7825 113.146 59.869 109.961 60.2005 106.934C60.5319 103.906 59.1628 101.168 57.4765 101.431L50.9765 102.458C38.5098 102.827 35.5985 101.984 24.3712 97.8777C19.8025 96.2191 17.1794 90.138 16.9344 81.3979C16.6173 69.9728 16.8911 58.3897 16.8623 46.9644C16.8479 37.619 16.0408 27.0624 18.7936 18.6383C21.6905 9.76669 27.9311 7.08151 33.5231 5.55464C47.5896 1.84276 61.757 0.184261 75.9821 -1.62359e-05C75.9821 -1.62359e-05 103.25 -0.394896 109.938 3.58023Z" fill="#F7BC28"/>
<path d="M39.0286 44.0949C58.125 44.9901 77.308 44.2529 96.3612 41.752C99.114 41.3834 99.1428 33.4858 96.3612 33.8544C77.308 36.3553 58.125 37.0925 39.0286 36.1974C36.247 36.0657 36.247 43.9633 39.0286 44.0949Z" fill="white"/>
<path d="M35.7571 66.3135C48.1086 66.3135 60.46 65.2605 72.8115 64.9973C82.3669 64.813 91.8791 65.6554 101.406 64.1548C104.158 63.7336 104.187 55.836 101.406 56.2572C91.8791 57.7315 82.3669 56.8891 72.8115 57.0997C60.46 57.3629 48.1086 58.4159 35.7571 58.4159C32.9755 58.4159 32.9611 66.3135 35.7571 66.3135Z" fill="white"/>
<path d="M16.214 136.839C16.3581 135.26 15.796 133.706 14.9313 133.391C9.62748 131.469 4.66961 126.888 1.55653 118.385C-3.77607 103.801 5.77937 88.9007 12.582 84.0042C19.5721 78.976 27.9024 79.5553 34.3736 86.5842C34.7916 87.0317 35.1807 87.5055 35.5698 88.032C40.225 94.2184 44.1164 106.407 42.8769 116.595C42.4157 120.36 41.2772 123.834 39.2018 126.651C35.3392 131.916 30.0931 133.864 25.092 134.365C24.1264 134.47 23.2184 135.207 22.5842 136.523C21.5321 138.682 19.7738 142.078 18.1596 144.421C17.0931 145.974 15.5366 144.237 15.7672 141.788L16.214 136.839Z" fill="#39B55D"/>
<path d="M12.7691 104.617C19.0673 104.617 25.3656 104.617 31.6638 104.617C33.9842 104.617 33.9842 98.0355 31.6638 98.0355C25.3656 98.0355 19.0673 98.0355 12.7691 98.0355C10.4487 98.0355 10.4487 104.617 12.7691 104.617Z" fill="white"/>
<path d="M11.8467 118.622C18.3756 118.622 24.9044 118.622 31.4332 118.622C33.7536 118.622 33.7536 112.041 31.4332 112.041C24.9044 112.041 18.3756 112.041 11.8467 112.041C9.52636 112.041 9.52636 118.622 11.8467 118.622Z" fill="white"/>
</svg>
