<svg width="95" height="150" viewBox="0 0 95 150" fill="none" xmlns="http://www.w3.org/2000/svg">
<path d="M25.92 21.6191C16.73 48.2485 8.93998 76.3956 2.69998 105.584C1.25998 112.307 -0.120022 119.296 0.00997831 126.478C0.139978 133.66 2.08998 141.196 5.75998 144.301C7.83998 146.066 10.22 146.26 12.52 146.366C33.91 147.284 55.37 142.466 75.94 132.107C84.25 127.925 93.9 119.578 94.34 104.349C94.64 93.8838 90.28 85.1132 87.59 75.7603C83.21 60.5309 83.03 41.8956 77.37 28.0426C72.25 15.4956 65.61 2.4015 56.89 1.06033C51.74 0.266212 46.1 -0.792612 40.41 1.55445C34.16 4.11327 28.91 11.5956 25.92 21.6191Z" fill="#F7BC28"/>
<path d="M32.5002 24.4956C28.7302 43.625 27.1802 64.4133 28.0002 84.8486C28.4002 94.6956 29.4102 104.825 32.4002 112.819C36.2302 123.072 43.1002 128.384 49.5702 126.972C56.0402 125.56 61.9602 117.849 65.5402 107.243C70.7702 91.7662 71.0002 71.9486 70.3002 53.4544C69.6702 37.0074 67.5902 18.178 60.0702 10.6251C54.1602 4.69567 47.0202 8.04862 40.6102 11.5251L32.5002 24.4956Z" fill="#FFC9A0"/>
<path d="M23.4102 64.7309C32.3102 64.8015 42.4902 57.6191 44.7302 53.8603C51.4802 42.478 52.1602 18.9191 51.9602 3.26624L30.8102 16.6427L23.5602 40.678L23.4102 64.7309Z" fill="#F7BC28"/>
<path d="M47.1699 3.24854C47.1699 3.24854 56.1799 48.5132 75.1099 55.0073L72.1299 35.525L64.6299 10.1485L47.1699 3.24854Z" fill="#F7BC28"/>
<path d="M58.1199 52.2368C57.6199 52.0956 57.1299 52.5544 56.9099 53.3662C56.8599 53.5603 56.7999 53.7544 56.7599 53.9662C56.6199 54.6368 56.6299 55.5368 56.9899 55.8721C57.1299 56.0132 57.2999 56.0132 57.4599 56.0132C59.1399 56.0662 60.8099 56.4721 62.4499 57.1603C63.2799 57.5132 64.0999 57.9368 64.9099 58.4485C65.1099 58.5721 65.8599 59.3132 66.0399 59.1897C66.3799 58.9779 66.2099 57.9015 66.0699 57.5132C65.8799 57.0015 65.5699 56.6662 65.2799 56.3485L65.1999 56.2603C63.5499 54.4779 61.7099 53.2603 59.7999 52.7309L58.1199 52.2368Z" fill="#F7BC28"/>
<path d="M42.5602 8.87805C35.9902 8.8957 29.2402 27.4957 26.9202 36.831C24.3302 47.2604 19.7502 58.431 16.6002 68.3487C13.5202 78.0546 10.4602 87.8487 8.12018 98.2075C6.96018 103.325 5.99018 108.584 5.31018 113.966C4.70018 118.731 4.82018 119.878 4.46018 124.802C4.05018 130.396 4.18018 136.943 7.36018 137.984C10.4802 139.007 16.2202 138.76 19.3402 139.484C19.9202 139.625 20.1802 138.037 19.5902 137.896C15.0702 136.819 7.59018 140.243 5.80018 130.007C4.98018 125.313 5.52018 120.143 6.09018 115.466C6.70018 110.419 12.8202 91.184 13.8502 86.3663C18.0802 66.6546 21.2402 63.4075 26.3402 44.4193C29.1902 33.8134 32.2702 21.6193 37.6602 14.2428C38.5002 13.0781 39.4302 12.1075 40.4502 11.5604C41.3202 11.1016 42.6902 10.5016 43.4402 10.1486C44.3902 9.67217 44.1702 8.87805 42.5602 8.87805Z" fill="white"/>
<path d="M33.05 135.672C32.9 135.672 32.76 135.655 32.61 135.637C29.71 135.143 25.08 133.784 22.47 131.896C20.12 130.202 17.54 127.784 16.21 123.813C13.92 117.019 14.3 106.343 17.37 100.449C17.77 99.6722 17.92 97.7839 17.51 98.5604C14.86 103.66 13.45 109.254 13.92 115.96C14.24 120.46 14.13 124.872 15.5 127.184C17.18 130.025 20.61 132.407 22.76 133.872C25.37 135.637 28.87 136.272 31.64 136.713C32.23 136.819 35.06 136.713 34.69 135.69H33.05V135.672Z" fill="white"/>
<path d="M23.2603 88.9958C21.8903 95.5781 20.3503 106.413 21.2203 111.796C21.7303 114.919 25.1003 119.649 27.7903 123.602C28.2503 124.272 29.2503 124.766 28.7903 124.078C26.2303 120.319 23.3903 116.137 22.5003 110.208C21.4903 103.519 22.5703 94.7311 23.8903 88.4311C24.0903 87.4428 23.4703 88.0075 23.2603 88.9958Z" fill="white"/>
<path d="M25.589 58.1796C28.919 57.3149 32.059 55.1796 35.119 52.7796C37.949 50.5737 42.489 46.8502 44.759 43.0384C47.009 39.2266 47.499 32.6972 48.509 27.5619C49.609 22.0208 49.429 18.9325 49.449 13.0736C49.449 12.0148 48.789 9.17364 48.789 10.2325C48.789 26.7325 46.769 36.1913 42.189 43.5855C40.019 47.0796 37.299 49.3031 34.639 51.3678C31.649 53.6972 28.579 55.7619 25.329 56.5913C24.749 56.7502 24.999 58.3384 25.589 58.1796Z" fill="white"/>
<path d="M32.2003 40.1132C32.9903 34.9249 36.6403 29.7014 38.7403 25.7485C41.0303 21.4602 41.5303 20.0132 44.3103 16.8015C44.8103 16.2191 45.2903 13.6073 44.7903 14.1897C41.8103 17.6309 37.9703 22.8014 35.5803 27.4602C33.4503 31.6073 32.1003 36.0014 31.9103 38.7014C31.8403 39.7426 31.5303 42.4955 31.9003 42.7426L32.2003 40.1132Z" fill="white"/>
<path d="M39.8203 35.0663C42.7403 28.5369 46.0503 20.4545 45.5503 15.1251C45.4503 14.1016 44.7403 13.6428 44.6503 14.6839C44.0003 22.8898 40.9503 31.0781 38.1303 37.4134C37.7603 38.2251 38.5303 37.9604 38.9003 37.131L39.8203 35.0663Z" fill="white"/>
<path d="M77.22 55.2192C66.72 50.278 58.31 34.5369 56.12 15.7603C55.97 16.1133 55.82 16.4486 55.67 16.8015C62.34 15.725 68.2 23.1545 72.02 32.2251C76.41 42.6545 78.21 55.5898 80.6 67.6604C81.84 73.9074 83.37 79.8016 85.04 85.731C86.68 91.5545 88.37 97.9251 87.93 104.596C87.2 115.749 80.86 122.102 75.45 125.507C67.13 130.749 58.1 133.078 49.29 133.219C48.69 133.237 47.31 135.69 47.9 135.69C56.33 135.549 63.65 133.802 71.69 129.302C77.21 126.213 86.63 118.519 88.81 108.319C90.1 102.302 90.24 97.0074 88.89 91.2369C87.37 84.7075 83.89 78.5133 82.45 71.9133C79.67 59.1369 76.44 40.1486 74.81 35.5427C69.92 21.6369 63.23 13.9427 55.68 15.1603C55.37 15.2133 55.17 15.6368 55.23 16.2015C58.4 43.0957 66.18 51.7251 76.98 56.7898C77.56 57.0722 77.8 55.5016 77.22 55.2192Z" fill="white"/>
<path d="M47.75 127.872C54.31 128.843 64.89 127.766 71.16 123.672C76.24 120.354 77.37 115.448 79.61 106.484C80.86 101.472 81.73 101.948 79.55 90.672C79.36 89.6661 78.39 89.3308 78.7 90.2308C81.69 99.0544 77.81 111.037 73.93 116.684C69.56 123.054 63.93 125.878 58.36 126.601C54.83 127.06 51.28 126.76 47.76 126.231C47.15 126.143 47.15 127.784 47.75 127.872Z" fill="white"/>
<path d="M83.2801 109.784C85.9701 103.59 84.9801 99.3722 84.0101 91.9604C82.8701 83.278 79.9401 75.7251 77.2501 68.3486C76.9301 67.4663 76.1201 68.2781 76.4501 69.1781C79.0101 76.1839 81.7601 83.2604 82.9801 91.4133C84.0701 98.7016 84.3501 104.666 82.0001 112.166C81.7101 113.084 81.5501 114.672 81.9101 113.843L83.2801 109.784Z" fill="white"/>
<path d="M64.5004 114.919C68.6404 112.802 72.3504 103.555 74.0304 96.6722C76.0804 88.2192 73.7004 83.2251 72.5504 74.4545C72.4104 73.431 71.5204 73.8545 71.6504 74.8957C72.7404 83.1722 73.0504 92.1545 71.2004 100.166C69.6704 106.784 66.3804 111.231 62.6904 114.46C62.3404 114.76 61.6304 116.084 61.6304 116.084L64.5004 114.919Z" fill="white"/>
<path d="M62.7401 29.4898C64.3801 30.7781 66.2401 33.1604 67.6501 35.7369C69.1101 38.4192 72.4401 45.4604 73.6801 48.4604C76.0801 54.3192 76.0501 56.5428 77.5001 63.3016C77.7101 64.2722 78.6101 63.8486 78.4001 62.8604C76.8501 55.6075 74.7601 48.7604 72.1401 42.5486C70.8701 39.531 70.9501 38.2075 69.4501 35.5251C68.0101 32.9486 66.1101 30.231 64.1001 29.1898C63.5201 28.8898 62.1601 29.1898 62.7401 29.4898Z" fill="white"/>
<path d="M29.6502 63.7605C25.6802 64.9076 24.2502 64.8193 20.6102 68.0664C18.0002 70.3958 15.2502 73.784 14.8302 78.9017C14.2902 85.484 18.0202 90.9546 21.7202 92.2252C25.4202 93.4958 29.2402 92.0664 33.0002 92.5958" fill="#FFC9A0"/>
<path d="M69.25 53.2602C72.61 52.6602 76.03 53.4543 79.19 55.5543C82.35 57.6543 85.03 63.3014 84.46 69.1602C83.84 75.4779 80.04 78.9896 76.62 81.1249C73.41 83.1191 70.12 84.7249 66.79 85.9249" fill="#FFC9A0"/>
<path d="M40.8701 124.343L43.6001 149.49H51.9601L54.9801 116.931L40.8701 124.343Z" fill="#FFC9A0"/>
<path d="M32.6899 102.372C32.5699 102.566 32.3899 102.566 32.2699 102.372C31.3199 100.89 30.2099 99.7426 29.2199 98.3309C28.1599 96.8132 27.1999 94.8721 26.9599 92.5073C26.5099 88.0603 29.0899 85.0426 31.1799 87.9015C31.7699 88.6956 32.2299 89.7544 32.6599 90.8309C32.6999 90.9368 32.8099 90.8838 32.7999 90.7426C32.7199 89.5073 32.9799 88.2015 33.4399 87.2485C34.2299 85.5721 35.9099 84.1426 37.1799 84.5662C38.9699 85.1485 38.9299 88.8015 38.4399 91.2015C37.8499 94.0956 36.1599 96.6544 34.9199 98.6838L32.6899 102.372Z" fill="#F1673C"/>
<path d="M65.5398 99.672C65.4098 99.8485 65.2298 99.7955 65.1298 99.5838C64.2798 97.9249 63.2598 96.5661 62.3698 94.9602C61.4098 93.2485 60.5898 91.1132 60.4998 88.7132C60.3398 84.1955 63.0998 81.7426 64.9998 84.9896C65.5298 85.9073 65.9198 87.0367 66.2798 88.2014C66.3198 88.3249 66.4198 88.272 66.4198 88.1485C66.4198 86.8955 66.7698 85.6602 67.2898 84.7955C68.1898 83.2955 69.9398 82.2191 71.1798 82.8896C72.9198 83.8426 72.6398 87.4426 71.9998 89.7367C71.2198 92.4896 69.3798 94.6779 68.0198 96.4602L65.5398 99.672Z" fill="#F1673C"/>
<path d="M53.84 108.249C57.03 105.884 59.53 101.331 60.74 95.6134C60.86 95.031 60.6 94.3604 60.29 94.2016C59.93 94.0251 59.61 94.4134 59.49 94.9957C58.46 99.8839 56.23 104.013 53.5 106.025C53.18 106.272 52.94 106.784 53.05 107.437C53.12 107.984 53.51 108.496 53.84 108.249Z" fill="#010101"/>
<path d="M54.3603 67.1134C54.9203 71.3134 57.1803 74.8781 59.7303 73.8546C62.0903 72.9016 63.1203 68.4722 63.8003 64.8369C63.4803 65.0663 63.1603 65.2957 62.8503 65.5252C64.3903 66.9193 65.9303 68.2957 67.4703 69.6899C68.2103 70.3605 68.8703 68.384 68.1303 67.7134C66.5903 66.3193 65.0503 64.9428 63.5103 63.5487C63.1203 63.1957 62.6903 63.4957 62.5603 64.2369C62.0603 66.9016 61.3803 70.4487 59.7203 71.4899C57.7603 72.7252 56.0503 69.6546 55.6303 66.5134C55.4203 65.0663 54.1603 65.684 54.3603 67.1134Z" fill="#010101"/>
<path d="M61.8901 69.8308C61.9501 69.9014 62.0001 69.972 62.0501 70.0426C62.1401 70.1661 62.0701 70.0779 62.0201 70.0073C62.0601 70.0602 62.0901 70.1132 62.1301 70.1661C62.2601 70.3602 62.4001 70.5367 62.5301 70.7308C62.8401 71.172 63.1401 71.6308 63.4501 72.072C64.0301 72.9191 64.6001 73.7838 65.2101 74.5602C65.4901 74.9132 65.9501 74.6661 66.1001 74.1543C66.2801 73.5543 66.1601 72.9544 65.8701 72.5838C65.8101 72.5132 65.7601 72.4426 65.7101 72.372C65.6201 72.2485 65.6901 72.3367 65.7401 72.4073C65.7001 72.3543 65.6701 72.3014 65.6301 72.2485C65.5001 72.0543 65.3601 71.8779 65.2301 71.6838C64.9201 71.2426 64.6201 70.7838 64.3101 70.3426C63.7301 69.4955 63.1601 68.6308 62.5501 67.8543C62.2701 67.5014 61.8101 67.7485 61.6601 68.2602C61.4801 68.8426 61.6001 69.4426 61.8901 69.8308Z" fill="#010101"/>
<path d="M42.97 70.0604C42.55 73.2016 40.84 76.2722 38.88 75.0369C37.22 73.9957 36.54 70.4487 36.04 67.784C35.9 67.0604 35.47 66.7428 35.09 67.0957C33.55 68.4899 32.01 69.8663 30.47 71.2604C29.72 71.931 30.38 73.9075 31.13 73.2369C32.67 71.8428 34.21 70.4663 35.75 69.0722C35.43 68.8428 35.11 68.6134 34.8 68.384C35.48 72.0193 36.51 76.431 38.87 77.4016C41.42 78.4428 43.68 74.8604 44.24 70.6604C44.42 69.2487 43.16 68.631 42.97 70.0604Z" fill="#010101"/>
<path d="M36.0301 71.4016C35.4201 72.1781 34.8501 73.0428 34.2701 73.8899C33.9601 74.3311 33.6601 74.7899 33.3501 75.2311C33.2201 75.4252 33.0901 75.6016 32.9501 75.7958C32.9201 75.8487 32.8901 75.884 32.8501 75.9369C32.8101 75.9899 32.9901 75.7605 32.8601 75.9193C32.8101 75.9899 32.7501 76.0605 32.7001 76.1311C32.4301 76.484 32.2601 77.1369 32.4701 77.7016C32.6501 78.1781 33.0701 78.4958 33.3601 78.1075C33.9701 77.3311 34.5401 76.4664 35.1201 75.6193C35.4301 75.1781 35.7301 74.7193 36.0401 74.2781C36.1701 74.084 36.3001 73.9075 36.4401 73.7134C36.4701 73.6605 36.5001 73.6252 36.5401 73.5722C36.5801 73.5193 36.4001 73.7487 36.5301 73.5899C36.5801 73.5193 36.6401 73.4487 36.6901 73.3781C36.9601 73.0252 37.1301 72.3722 36.9201 71.8075C36.7501 71.3311 36.3301 71.0311 36.0301 71.4016Z" fill="#010101"/>
<path d="M73.5802 61.5014C74.7602 61.1838 76.0202 61.572 77.1702 62.0838C78.3102 62.5956 79.4802 63.2485 80.1502 65.1014C80.5002 66.072 80.6302 67.1485 80.4002 68.2603C80.1902 69.2838 79.8002 70.2544 79.3802 71.0485C78.6402 72.425 77.6802 73.325 76.7102 74.0485C75.5502 74.9132 74.3402 75.5661 73.1902 76.4661C72.6402 76.8897 73.1202 78.3014 73.6602 77.8781C75.9402 76.0956 78.6402 75.2485 80.3102 71.6838C81.2402 69.7073 81.8202 67.2897 81.1402 64.8191C80.5102 62.5603 79.2902 61.4485 77.9802 60.7603C76.5002 59.9838 74.8902 59.5073 73.3502 59.9132C72.7402 60.072 72.9902 61.6603 73.5802 61.5014Z" fill="#010101"/>
<path d="M74.4002 70.925C74.7602 70.8015 75.1202 70.5015 75.4402 70.2192C75.8902 69.8486 76.3202 69.3897 76.7102 68.8427C77.0602 68.3486 77.3902 67.678 77.4202 66.8662C77.4502 65.7897 76.8902 65.1545 76.3902 64.7839C75.6802 64.2721 74.8902 64.1839 74.1302 64.0603C73.8902 64.025 73.6602 64.4662 73.6702 64.8721C73.6802 65.3486 73.8702 65.6486 74.1302 65.6839C74.2602 65.7015 74.3902 65.7192 74.5202 65.7368C74.6002 65.7545 74.6702 65.7545 74.7502 65.7721C74.7802 65.7721 74.8102 65.7897 74.8302 65.7897C74.8502 65.7897 74.9902 65.825 74.9402 65.8074C74.8702 65.7898 75.0102 65.825 75.0102 65.825C75.0502 65.8427 75.1002 65.8427 75.1402 65.8603C75.2102 65.878 75.2902 65.8956 75.3602 65.9309C75.5202 65.9839 75.6702 66.0545 75.8302 66.125C75.9002 66.1603 75.9602 66.1956 76.0302 66.2486C76.0602 66.2662 76.0802 66.2839 76.1102 66.3015C76.0102 66.2309 76.1302 66.3192 76.1502 66.3368C76.2102 66.3897 76.2702 66.4427 76.3202 66.4956C76.3502 66.5309 76.3702 66.5486 76.4002 66.5839C76.5102 66.7074 76.3602 66.5133 76.4102 66.6015C76.4402 66.6545 76.4702 66.7074 76.4902 66.7427C76.5502 66.8309 76.4302 66.5662 76.4702 66.6898C76.4802 66.7074 76.4802 66.725 76.4902 66.7427C76.5502 66.9015 76.4602 66.5486 76.4902 66.725C76.5302 66.9545 76.4802 66.5486 76.4902 66.725C76.4902 66.7427 76.4802 66.8133 76.4902 66.8133C76.4802 66.7956 76.5202 66.6015 76.5002 66.6898C76.4902 66.7427 76.4802 66.7956 76.4702 66.8486C76.4502 66.9898 76.5302 66.6545 76.4902 66.778C76.4802 66.7956 76.4702 66.8309 76.4702 66.8662C76.4502 66.9368 76.4302 66.9897 76.4102 67.0427C76.3602 67.1662 76.4902 66.8839 76.4302 67.0074C76.4202 67.025 76.4002 67.0603 76.3902 67.0956C76.3602 67.1486 76.3302 67.2015 76.3002 67.2545C76.2302 67.378 76.1502 67.5015 76.0702 67.625C76.0502 67.6603 76.0102 67.7309 76.1002 67.5897C76.0802 67.625 76.0502 67.6603 76.0302 67.678C75.9902 67.7309 75.9502 67.7839 75.9102 67.8368C75.8202 67.9427 75.7202 68.0486 75.6302 68.1545C75.4502 68.3486 75.2602 68.525 75.0702 68.6839C74.9702 68.7721 74.8702 68.8603 74.7602 68.9309C74.7502 68.9486 74.7302 68.9662 74.7102 68.9662C74.8502 68.8956 74.7402 68.9486 74.7002 68.9662C74.6602 69.0015 74.6102 69.0368 74.5702 69.0545C74.4402 69.1427 74.3002 69.2309 74.1702 69.2839C73.9302 69.3721 73.7702 69.9015 73.8502 70.2897C73.9102 70.8192 74.1502 71.0133 74.4002 70.925Z" fill="#010101"/>
<path d="M25.8701 86.1722C24.2501 86.5251 22.6201 86.2957 21.0501 85.4486C19.9301 84.8486 17.7501 83.6486 18.0501 80.931C18.1901 79.6604 18.7101 78.5839 19.2101 77.7016C19.7201 76.8016 20.2701 75.9722 20.8701 75.2663C22.1001 73.7839 23.4701 72.7604 24.9201 72.1957C25.5001 71.9663 25.2601 70.3957 24.6701 70.6075C22.1401 71.5957 19.5901 74.0486 17.9701 77.6663C17.1901 79.4134 16.6901 81.8133 17.5201 83.7898C18.2801 85.6075 19.7601 86.4898 20.9401 87.1075C22.5301 87.9369 24.2101 88.1663 25.8501 87.8134C26.4601 87.6898 26.4701 86.0486 25.8701 86.1722Z" fill="#010101"/>
<path d="M23.9503 75.6367C23.3203 75.7602 22.7203 76.0602 22.1503 76.5367C21.6303 76.9779 21.0903 77.5955 20.7303 78.4073C20.3203 79.3073 20.2503 80.419 20.5403 81.4602C20.7903 82.3779 21.2803 83.0484 21.8303 83.3484C22.5503 83.7543 23.3203 83.5426 24.0503 83.3484C24.3003 83.2779 24.4403 82.7308 24.3703 82.3426C24.3003 81.8661 24.0503 81.7073 23.8003 81.7779C23.2003 81.9367 22.5403 82.1132 21.9603 81.7073C22.0103 81.7426 21.8603 81.619 21.8503 81.6014C21.7903 81.5484 21.7403 81.4779 21.6803 81.4073C21.7103 81.4426 21.7003 81.4249 21.6603 81.372C21.6403 81.3367 21.6103 81.2837 21.5903 81.2484C21.5803 81.2308 21.4703 81.019 21.5003 81.0896C21.4603 81.0014 21.4303 80.8955 21.3903 80.8073C21.3703 80.7543 21.3603 80.7014 21.3503 80.6484C21.3603 80.719 21.3603 80.7014 21.3403 80.6132C21.3203 80.5073 21.3003 80.4014 21.2903 80.2955C21.3003 80.4367 21.2903 80.1367 21.2903 80.1014C21.2903 79.9955 21.2903 79.9955 21.2903 80.0661C21.3003 80.0132 21.3003 79.9602 21.3103 79.9073C21.3203 79.819 21.3303 79.7837 21.3703 79.6779C21.4303 79.4837 21.5103 79.3426 21.6103 79.1661C21.8203 78.8132 22.0603 78.5308 22.3103 78.2837C22.8103 77.772 23.4003 77.419 23.9603 77.3132C24.2103 77.2602 24.4203 76.9779 24.4203 76.5014C24.4103 76.0602 24.2003 75.6014 23.9503 75.6367Z" fill="#010101"/>
<path d="M49.5897 78.4252C50.3997 82.0958 51.3197 85.7664 51.9797 89.437C52.1397 90.337 51.7497 91.237 51.2197 91.2546C50.2797 91.2722 49.1697 91.2899 48.2497 91.2899C47.7797 91.2899 47.4097 90.584 47.4497 89.737L48.0497 78.7781C48.1297 77.2958 49.2797 77.0311 49.5897 78.4252Z" fill="#E48929"/>
<path d="M54.2499 124.784C54.2499 124.784 47.6999 129.425 40.8599 124.343L41.3799 129.107L53.1399 136.713L54.2499 124.784Z" fill="#EFB086"/>
<path d="M49.8097 12.1956C53.1297 12.0367 56.1197 9.90145 59.4097 10.8897C61.6897 11.5779 64.3697 13.6603 66.2297 15.9191C70.0797 20.5956 72.9997 25.5191 76.0097 31.8897C76.4197 32.772 80.2997 43.0426 77.0597 31.8191C74.8497 24.1956 69.6697 18.6897 65.6797 13.872C63.7797 11.5779 61.9697 9.86616 59.6697 9.17792C56.2897 8.15439 49.1097 7.32498 49.1397 8.45439C49.1897 9.90145 49.1897 11.2073 49.1897 11.2073L49.8097 12.1956Z" fill="white"/>
</svg>
